<svg id="visual" viewBox="0 0 960 100" width="960" height="100" xmlns="http://www.w3.org/2000/svg" xmlns:xlink="http://www.w3.org/1999/xlink" version="1.1"><path d="M0 39L16 37.8C32 36.7 64 34.3 96 32C128 29.7 160 27.3 192 27.5C224 27.7 256 30.3 288 33.5C320 36.7 352 40.3 384 38.3C416 36.3 448 28.7 480 27.7C512 26.7 544 32.3 576 37.2C608 42 640 46 672 47.8C704 49.7 736 49.3 768 44.5C800 39.7 832 30.3 864 31.2C896 32 928 43 944 48.5L960 54L960 101L944 101C928 101 896 101 864 101C832 101 800 101 768 101C736 101 704 101 672 101C640 101 608 101 576 101C544 101 512 101 480 101C448 101 416 101 384 101C352 101 320 101 288 101C256 101 224 101 192 101C160 101 128 101 96 101C64 101 32 101 16 101L0 101Z" fill="#ffffff"></path><path d="M0 56L16 56.2C32 56.3 64 56.7 96 55.2C128 53.7 160 50.3 192 49.7C224 49 256 51 288 55C320 59 352 65 384 67C416 69 448 67 480 62C512 57 544 49 576 48.8C608 48.7 640 56.3 672 57.5C704 58.7 736 53.3 768 53.7C800 54 832 60 864 60.3C896 60.7 928 55.3 944 52.7L960 50L960 101L944 101C928 101 896 101 864 101C832 101 800 101 768 101C736 101 704 101 672 101C640 101 608 101 576 101C544 101 512 101 480 101C448 101 416 101 384 101C352 101 320 101 288 101C256 101 224 101 192 101C160 101 128 101 96 101C64 101 32 101 16 101L0 101Z" fill="#777777"></path><path d="M0 75L16 73.3C32 71.7 64 68.3 96 68.3C128 68.3 160 71.7 192 74.5C224 77.3 256 79.7 288 77.8C320 76 352 70 384 70.3C416 70.7 448 77.3 480 79C512 80.7 544 77.3 576 74.8C608 72.3 640 70.7 672 70.8C704 71 736 73 768 72.5C800 72 832 69 864 69.2C896 69.3 928 72.7 944 74.3L960 76L960 101L944 101C928 101 896 101 864 101C832 101 800 101 768 101C736 101 704 101 672 101C640 101 608 101 576 101C544 101 512 101 480 101C448 101 416 101 384 101C352 101 320 101 288 101C256 101 224 101 192 101C160 101 128 101 96 101C64 101 32 101 16 101L0 101Z" fill="#000000"></path></svg>