<svg viewBox="0 0 960 100" width="960" height="100" xmlns="http://www.w3.org/2000/svg"
    xmlns:xlink="http://www.w3.org/1999/xlink" version="1.1">
    <path
        d="M0 49L14.5 47C29 45 58 41 87.2 41.8C116.3 42.7 145.7 48.3 174.8 52.7C204 57 233 60 262 59.3C291 58.7 320 54.3 349 51.7C378 49 407 48 436.2 48.5C465.3 49 494.7 51 523.8 49C553 47 582 41 611 42.7C640 44.3 669 53.7 698 58.3C727 63 756 63 785.2 62C814.3 61 843.7 59 872.8 57.5C902 56 931 55 945.5 54.5L960 54L960 101L945.5 101C931 101 902 101 872.8 101C843.7 101 814.3 101 785.2 101C756 101 727 101 698 101C669 101 640 101 611 101C582 101 553 101 523.8 101C494.7 101 465.3 101 436.2 101C407 101 378 101 349 101C320 101 291 101 262 101C233 101 204 101 174.8 101C145.7 101 116.3 101 87.2 101C58 101 29 101 14.5 101L0 101Z"
        fill="currentColor" stroke-linecap="round" stroke-linejoin="miter"></path>
</svg>